<?xml version="1.0" encoding="UTF-8" standalone="no"?>
<svg width="1354px" height="221px" viewBox="0 0 1354 221" version="1.1" xmlns="http://www.w3.org/2000/svg" xmlns:xlink="http://www.w3.org/1999/xlink" xmlns:sketch="http://www.bohemiancoding.com/sketch/ns">
    <!-- Generator: Sketch 3.1.1 (8761) - http://www.bohemiancoding.com/sketch -->
    <title>logo</title>
    <desc>Created with Sketch.</desc>
    <defs></defs>
    <g id="Page-1" stroke="none" stroke-width="1" fill="none" fill-rule="evenodd" sketch:type="MSPage">
        <g id="logo" sketch:type="MSLayerGroup">
            <g id="Page-1" sketch:type="MSShapeGroup">
                <g id="logo">
                    <rect id="Rectangle-3" fill="#FBDD1F" x="66" y="73" width="320" height="74" rx="40"></rect>
                    <rect id="Rectangle-3" fill="#CC53EE" x="0" y="147" width="320" height="74" rx="40"></rect>
                    <rect id="Rectangle-3" fill="#7ED321" x="0" y="0" width="320" height="74" rx="40"></rect>
                    <path d="M471.609375,4.84375 L665.25,4.84375 L665.25,55.75 L600.28125,55.75 L600.28125,211 L536.578125,211 L536.578125,55.75 L471.609375,55.75 L471.609375,4.84375 L471.609375,4.84375 Z M676.21875,108.0625 C676.21875,74.4060817 685.593656,48.2032187 704.34375,29.453125 C723.093844,10.7030313 749.202958,1.328125 782.671875,1.328125 C816.984547,1.328125 843.421782,10.5389704 861.984375,28.9609375 C880.546968,47.3829046 889.828125,73.1873341 889.828125,106.375 C889.828125,130.46887 885.773478,150.226485 877.664062,165.648438 C869.554647,181.07039 857.836014,193.07027 842.507812,201.648438 C827.179611,210.226605 808.078239,214.515625 785.203125,214.515625 C761.953009,214.515625 742.711014,210.812537 727.476562,203.40625 C712.242111,195.999963 699.890672,184.28133 690.421875,168.25 C680.953078,152.21867 676.21875,132.15637 676.21875,108.0625 L676.21875,108.0625 L676.21875,108.0625 Z M739.921875,108.34375 C739.921875,129.156354 743.789024,144.10933 751.523438,153.203125 C759.257851,162.29692 769.781183,166.84375 783.09375,166.84375 C796.781318,166.84375 807.374963,162.39067 814.875,153.484375 C822.375037,144.57808 826.125,128.593865 826.125,105.53125 C826.125,86.124903 822.210977,71.9453573 814.382812,62.9921875 C806.554648,54.0390177 795.937567,49.5625 782.53125,49.5625 C769.687436,49.5625 759.375039,54.1093295 751.59375,63.203125 C743.812461,72.2969205 739.921875,87.343645 739.921875,108.34375 L739.921875,108.34375 L739.921875,108.34375 Z M924.984375,4.84375 L1019.625,4.84375 C1038.28134,4.84375 1053.35151,7.37497469 1064.83594,12.4375 C1076.32037,17.5000253 1085.81246,24.7655777 1093.3125,34.234375 C1100.81254,43.7031723 1106.24998,54.7186872 1109.625,67.28125 C1113.00002,79.8438128 1114.6875,93.1561797 1114.6875,107.21875 C1114.6875,129.25011 1112.17971,146.335877 1107.16406,158.476562 C1102.14841,170.617248 1095.18754,180.789021 1086.28125,188.992188 C1077.37496,197.195354 1067.81255,202.656236 1057.59375,205.375 C1043.62493,209.125019 1030.96881,211 1019.625,211 L924.984375,211 L924.984375,4.84375 L924.984375,4.84375 Z M988.6875,51.53125 L988.6875,164.171875 L1004.29688,164.171875 C1017.60944,164.171875 1027.0781,162.695327 1032.70312,159.742188 C1038.32815,156.789048 1042.73436,151.632849 1045.92188,144.273438 C1049.10939,136.914026 1050.70312,124.984457 1050.70312,108.484375 C1050.70312,86.6405158 1047.14066,71.6875403 1040.01562,63.625 C1032.89059,55.5624597 1021.07821,51.53125 1004.57812,51.53125 L988.6875,51.53125 L988.6875,51.53125 Z M1140.14062,108.0625 C1140.14062,74.4060817 1149.51553,48.2032187 1168.26562,29.453125 C1187.01572,10.7030313 1213.12483,1.328125 1246.59375,1.328125 C1280.90642,1.328125 1307.34366,10.5389704 1325.90625,28.9609375 C1344.46884,47.3829046 1353.75,73.1873341 1353.75,106.375 C1353.75,130.46887 1349.69535,150.226485 1341.58594,165.648438 C1333.47652,181.07039 1321.75789,193.07027 1306.42969,201.648438 C1291.10149,210.226605 1272.00011,214.515625 1249.125,214.515625 C1225.87488,214.515625 1206.63289,210.812537 1191.39844,203.40625 C1176.16399,195.999963 1163.81255,184.28133 1154.34375,168.25 C1144.87495,152.21867 1140.14062,132.15637 1140.14062,108.0625 L1140.14062,108.0625 L1140.14062,108.0625 Z M1203.84375,108.34375 C1203.84375,129.156354 1207.7109,144.10933 1215.44531,153.203125 C1223.17973,162.29692 1233.70306,166.84375 1247.01562,166.84375 C1260.70319,166.84375 1271.29684,162.39067 1278.79688,153.484375 C1286.29691,144.57808 1290.04688,128.593865 1290.04688,105.53125 C1290.04688,86.124903 1286.13285,71.9453573 1278.30469,62.9921875 C1270.47652,54.0390177 1259.85944,49.5625 1246.45312,49.5625 C1233.60931,49.5625 1223.29691,54.1093295 1215.51562,63.203125 C1207.73434,72.2969205 1203.84375,87.343645 1203.84375,108.34375 L1203.84375,108.34375 L1203.84375,108.34375 Z" id="TODO" fill="#FFFFFF"></path>
                    <circle id="Oval-1" fill="#FFFFFF" cx="101.5" cy="109.5" r="13.5"></circle>
                    <path d="M26.0244183,29.8794646 L23,32.8273806 L32.5106218,46 L53,23.0261423 L50.0603533,20 L32.5106218,36.6437827 L26.0244183,29.8794646 L26.0244183,29.8794646 Z" id="Path-9" fill="#FFFFFF"></path>
                    <path d="M26.0244183,177.621896 L23,180.569812 L32.5106218,193.742432 L53,170.768574 L50.0603533,167.742432 L32.5106218,184.386214 L26.0244183,177.621896 L26.0244183,177.621896 Z" id="Path-9" fill="#FFFFFF"></path>
                </g>
            </g>
        </g>
    </g>
</svg>