<?xml version="1.0" encoding="UTF-8" standalone="no"?>
<svg width="192px" height="75px" viewBox="0 0 192 75" version="1.1" xmlns="http://www.w3.org/2000/svg" xmlns:xlink="http://www.w3.org/1999/xlink" xmlns:sketch="http://www.bohemiancoding.com/sketch/ns">
    <!-- Generator: Sketch 3.1 (8751) - http://www.bohemiancoding.com/sketch -->
    <title>Todo@1x</title>
    <desc>Created with Sketch.</desc>
    <defs></defs>
    <g id="Page-1" stroke="none" stroke-width="1" fill="none" fill-rule="evenodd" sketch:type="MSPage">
        <path d="M11.1,27.2 C15.1,27.1 19.1,28.8 19.1,26.7 C19.1,24.7 12.5,24 11.1,23.7 L11.1,23.5 C27.5,18.4 44.5,16.1 61.7,15.8 L51.7,28.6 C45.2,36.9 26.8,60.2 26.8,70.1 C26.8,72.9 29.7,74.3 32.2,74.3 C35.3,74.3 39.3,68.4 41.1,66.1 C42.3,64.6 45.3,61 45.3,59 C45.3,57.5 44,57.2 43,57.6 L42.8,57.4 L66.3,21.8 C67.7,19.6 70.9,15.9 70,13.5 C67.4,6.6 67.9,3.5 61.7,2.1 C56.8,1 51.6,0.8 46.6,0.8 C34.2,0.8 20.6,2.2 9.2,7.4 C2.7,10.3 2.9,12.3 1.7,18.8 C1.4,20.5 0.8,23 0.8,24.6 C0.8,27.3 3,27.3 5.3,27.3 L11.1,27.2 Z M97.4999984,52.1933596 C96.8488754,50.3808596 96.5,50.8 96.5,50.8 C92.1511214,51.7512209 90.6,56.9 86.2,56.1 C88.1,52.2 90.1,48.7 90.1,44.3 C90.1,41.3 89.5,39.2 86.5,38.4 C87.6,37.8 88.8,37.2 88.8,35.7 C88.8,33 85.5,32 83.3,32.1 C77.2,32.4 70,35.1 64.6,39.5 C59,43.8 55.3,48.8 55.5,56.3 C55.9,65.4 60.7,70.6 65.9,70.6 C72.2,70.6 77.1,67.4 81.3,63.1 C88.6,63.1 93.5261214,59.4433596 97.5,55 C97.5,55 98.1511214,54.0058596 97.4999984,52.1933596 Z M78.1,43 C78.5,43.2 73.8,49.5 73.8,54.7 C73.8,56.4 74.3,57.7 75,59.3 C72.7,61.4 70.6,63.3 67.3,63.3 C64.8,63.3 62.9,62.4 62.9,59.5 C62.9,56.4 64.8,52.5 67,50.3 C70,47.4 74.7,45 78.1,43 L78.1,43 Z M146.671377,25.5639935 C148.207609,23.1826514 150.8,19.2772504 150.8,16.4196399 C150.8,14.7050736 149.647826,12.8 147.727536,12.8 C140.718478,12.8 132.269203,32.5175123 129.100725,37.9469722 C127.852536,36.5181669 127.08442,35.1846154 125.068116,35.2798691 C116.906884,35.7561375 97.8,45.2815057 97.8,56.5214403 C97.8,59.8553191 100.488406,68.9996727 104.809058,68.9996727 C109.12971,68.9996727 118.059058,59.7600655 121.419565,56.902455 C121.035507,59.2837971 120.651449,61.7603928 120.651449,64.1417349 C120.651449,67.1898527 122.091667,71 125.740217,71 C132.749275,71 142.638768,60.9983633 147.151449,56.0451718 C147.151449,56.0451718 147.727536,54.7583588 147.727536,53.8300789 C147.727536,52.901799 146.479348,52.9018003 146.479348,52.9018003 C143.406884,54.9021277 134.573551,62.6176759 131.309058,62.6176759 C129.196739,62.6176759 129.100725,59.3790507 129.100725,57.8549918 C129.100725,51.7587561 133.70942,45.5672668 136.877899,40.6140753 L146.671377,25.5639935 Z M124.8,42.2 C123.2,48.1 107.1,60.1 105.9,59.8 C104.8,59.6 104.3,58.8 104.4,57.9 C105,51.3 107.2,47.9 124.8,42.2 L124.8,42.2 Z M191.336916,53.2275393 C191.124423,52.335071 189.2,50.8 189.2,50.8 C186.1,53.1 183.3,56.9 178.9,56.1 C180.8,52.2 182.8,48.7 182.8,44.3 C182.8,41.3 182.2,39.2 179.2,38.4 C180.3,37.8 181.5,37.2 181.5,35.7 C181.5,33 178.2,32 176,32.1 C169.9,32.4 162.7,35.1 157.3,39.5 C151.7,43.8 148,48.8 148.2,56.3 C148.6,65.4 153.4,70.6 158.6,70.6 C164.9,70.6 169.8,67.4 174,63.1 C181.3,63.1 185.7,60.7 190.2,55 C190.2,55 191.457756,53.735071 191.336916,53.2275393 Z M167.5,52.7 C167.5,54.4 168,55.7 168.7,57.3 C166.4,59.4 164.3,61.3 161,61.3 C158.5,61.3 156.6,60.4 156.6,57.5 C156.6,54.4 158.5,50.5 160.7,48.3 C163.7,45.4 168.4,43 171.8,41 C174.189453,48.3000002 167.5,47.5 167.5,52.7 Z" id="Todo" fill="#A8B5BE" sketch:type="MSShapeGroup"></path>
    </g>
</svg>